<?xml version="1.0" encoding="UTF-8"?>
<svg width="715px" height="578px" viewBox="0 0 715 578" version="1.1" xmlns="http://www.w3.org/2000/svg" xmlns:xlink="http://www.w3.org/1999/xlink">
    <!-- Generator: Sketch 50 (54983) - http://www.bohemiancoding.com/sketch -->
    <title>Group</title>
    <desc>Created with Sketch.</desc>
    <defs>
        <path d="M0,270.445241 C0,306.546525 17.9514236,340.273582 47.8813033,360.438263 L370.887686,578 L669.080779,367.506743 C697.883274,347.168602 715,314.124543 715,278.879715 L715,1.88637344 L367.267049,247.364269 L0,0 L0,270.445241 Z" id="path-1"></path>
        <linearGradient x1="52.4585223%" y1="102.563495%" x2="43.3544121%" y2="17.5315694%" id="linearGradient-3">
            <stop stop-color="#231981" offset="0%"></stop>
            <stop stop-color="#6DBAD7" offset="100%"></stop>
        </linearGradient>
        <linearGradient x1="73.8858271%" y1="85.6519096%" x2="0%" y2="0%" id="linearGradient-4">
            <stop stop-color="#231981" offset="0%"></stop>
            <stop stop-color="#6DBAD7" offset="100%"></stop>
        </linearGradient>
    </defs>
    <g id="Page-1" stroke="none" stroke-width="1" fill="none" fill-rule="evenodd">
        <g id="Group">
            <mask id="mask-2" fill="white">
                <use xlink:href="#path-1"></use>
            </mask>
            <g id="Clip-2"></g>
            <path d="M0,270.445241 C0,306.546525 17.9514236,340.273582 47.8813033,360.438263 L370.887686,578 L669.080779,367.506743 C697.883274,347.168602 715,314.124543 715,278.879715 L715,1.88637344 L367.267049,247.364269 L0,0 L0,270.445241 Z" id="Fill-1" fill="url(#linearGradient-3)" mask="url(#mask-2)"></path>
            <path d="M715,1 L369,578 L667.464309,367.823091 C696.169192,347.515515 715,314.510293 715,279.318434 L715,1 Z" id="Fill-4" fill="#231C7A" mask="url(#mask-2)"></path>
            <path d="M369,578 L0,0 L0,270.445241 C0,306.546525 17.8600573,340.26274 47.6376045,360.438263 L369,578 Z" id="Fill-10" fill="url(#linearGradient-4)" mask="url(#mask-2)"></path>
        </g>
    </g>
</svg>